<?xml version="1.0" standalone="no"?>
<!DOCTYPE svg PUBLIC "-//W3C//DTD SVG 20010904//EN"
 "http://www.w3.org/TR/2001/REC-SVG-20010904/DTD/svg10.dtd">
<svg version="1.0" xmlns="http://www.w3.org/2000/svg"
 width="887.000000pt" height="1183.000000pt" viewBox="0 0 887.000000 1183.000000"
 preserveAspectRatio="xMidYMid meet">

<g transform="translate(0.000000,1183.000000) scale(0.100000,-0.100000)"
fill="#000000" stroke="none">
<path d="M0 5915 l0 -5915 4435 0 4435 0 0 5915 0 5915 -4435 0 -4435 0 0
-5915z m4420 4410 c8 -5 92 -11 185 -12 182 -3 255 -7 323 -19 32 -5 47 -3 60
9 12 11 41 17 94 18 70 3 78 1 109 -25 27 -23 40 -27 71 -23 28 4 52 -2 97
-24 33 -16 81 -32 108 -35 46 -6 133 -42 133 -56 0 -7 116 -88 126 -88 6 0 90
-56 114 -76 85 -72 132 -127 136 -159 1 -14 7 -32 13 -39 6 -7 13 -30 16 -51
2 -20 11 -42 19 -49 26 -19 37 -62 21 -82 -20 -26 -18 -41 6 -65 16 -16 19
-27 13 -47 -5 -15 -9 -47 -10 -72 -1 -27 -7 -44 -13 -42 -7 1 -11 -20 -11 -60
0 -95 -10 -139 -29 -136 -21 4 -26 -32 -11 -77 13 -41 47 -48 68 -15 17 27 7
42 -24 34 -21 -5 -24 -3 -24 19 0 38 20 44 42 13 11 -14 23 -24 28 -21 4 3 10
-15 12 -40 2 -25 -1 -46 -6 -48 -13 -4 -10 -71 3 -75 14 -5 14 -112 1 -112
-14 0 -3 -67 16 -97 18 -28 18 -30 -4 -42 -13 -7 -31 -5 -58 4 -58 21 -95 19
-101 -5 -6 -21 -22 -25 -90 -21 -37 2 -43 0 -43 -17 0 -11 7 -25 15 -32 25
-21 15 -55 -15 -53 -61 5 -73 9 -90 31 -11 13 -31 24 -47 25 -25 2 -28 -1 -28
-28 l-1 -30 -142 3 c-78 1 -142 -1 -142 -5 0 -4 -83 -9 -184 -9 -173 -1 -186
-3 -225 -25 -24 -13 -44 -33 -47 -46 -11 -42 -60 -73 -114 -73 -58 0 -88 -23
-81 -63 1 -4 -6 -10 -14 -13 -8 -4 -15 -12 -15 -19 0 -8 -18 -31 -40 -53 -22
-21 -40 -42 -40 -46 0 -4 -14 -25 -31 -46 -38 -47 -33 -77 13 -82 49 -5 56
-28 29 -90 -32 -71 -36 -110 -17 -144 l15 -29 1 25 c2 50 162 160 309 211 30
11 75 32 100 48 174 107 311 146 425 121 127 -29 181 -50 243 -95 58 -41 59
-72 3 -81 -36 -6 -67 -24 -41 -24 6 0 8 -6 5 -14 -6 -16 -54 -7 -81 15 -9 8
-55 14 -119 15 -58 2 -108 5 -112 7 -21 13 -167 -32 -269 -82 -23 -12 -46 -21
-51 -21 -4 0 -17 -8 -28 -17 -10 -10 -36 -29 -56 -43 -44 -29 -53 -45 -27 -47
10 -1 19 3 19 8 0 5 8 13 18 16 9 4 30 17 45 30 16 13 39 23 51 23 12 0 31 7
42 15 40 30 68 19 107 -42 58 -94 74 -104 194 -120 34 -4 52 0 86 20 24 14 49
33 57 41 21 26 53 18 99 -25 42 -39 42 -41 25 -60 -9 -10 -27 -19 -40 -19 -30
0 -49 -33 -29 -50 10 -8 19 -9 34 0 15 8 27 8 42 0 13 -8 29 -8 47 -2 15 5 53
7 84 4 84 -7 125 3 132 33 4 14 17 32 31 41 18 12 25 25 25 49 0 38 -24 91
-45 99 -19 7 -20 26 -1 26 7 0 40 -12 72 -27 72 -33 109 -38 137 -18 26 18 68
19 89 3 14 -12 32 -71 59 -202 12 -57 7 -204 -9 -261 -7 -22 -14 -65 -17 -95
-5 -51 -49 -167 -69 -181 -5 -4 -5 -20 -1 -35 9 -33 8 -50 -5 -79 -5 -11 -11
-36 -15 -56 -4 -28 -11 -38 -29 -43 -14 -3 -26 -16 -30 -31 -4 -14 -18 -35
-31 -47 -14 -12 -25 -27 -25 -33 0 -7 -18 -37 -39 -67 -22 -30 -43 -68 -47
-84 -11 -44 -81 -124 -109 -124 -31 0 -55 -35 -55 -82 0 -34 3 -38 25 -38 33
0 45 -28 19 -46 -10 -7 -24 -18 -31 -24 -7 -5 -17 -10 -22 -10 -5 0 -12 -8
-15 -17 -4 -15 -1 -120 5 -168 5 -42 -11 -129 -25 -137 -11 -6 -16 -23 -16
-54 0 -49 -16 -128 -31 -156 -5 -10 -9 -34 -9 -53 0 -20 -9 -56 -20 -79 -10
-24 -24 -65 -30 -91 -7 -32 -21 -57 -46 -80 -20 -19 -33 -38 -30 -44 6 -9 -34
-144 -55 -187 -6 -12 -9 -30 -8 -40 2 -10 -2 -35 -8 -54 -7 -19 -15 -55 -19
-80 -7 -47 -24 -81 -58 -116 -12 -12 -42 -45 -68 -73 -26 -28 -51 -51 -55 -51
-4 -1 -26 -9 -48 -20 -22 -11 -45 -19 -51 -20 -6 0 -17 -12 -24 -26 -8 -14
-28 -33 -44 -41 -17 -9 -39 -26 -49 -39 -11 -15 -29 -24 -46 -24 -33 0 -91
-19 -91 -30 0 -4 -20 -13 -45 -20 -35 -10 -48 -10 -59 -1 -11 10 -21 9 -45 -3
-16 -9 -42 -16 -57 -16 -15 0 -35 -7 -45 -16 -9 -8 -32 -18 -51 -20 -18 -3
-52 -12 -75 -21 -29 -11 -56 -13 -85 -9 -50 8 -48 8 -114 0 -34 -4 -73 -1
-116 10 -35 9 -92 16 -125 16 -34 0 -63 4 -65 10 -1 5 -23 12 -48 14 -110 13
-252 76 -294 130 -20 26 -33 34 -55 34 -22 -1 -50 16 -112 68 -99 82 -164 148
-185 187 -8 15 -26 32 -39 37 -30 12 -78 81 -99 147 -9 28 -24 57 -32 63 -7 7
-14 16 -14 21 0 5 -17 35 -37 66 -21 32 -50 83 -66 113 -16 30 -37 62 -46 71
-22 21 -66 111 -82 169 -7 25 -20 52 -29 60 -21 20 -100 177 -100 199 0 10 -7
37 -15 62 -8 24 -22 78 -29 119 -8 41 -19 93 -25 115 -14 55 -6 75 29 75 17 0
33 7 39 17 8 15 14 14 63 -18 29 -20 60 -49 68 -65 38 -75 92 -133 124 -134
14 0 16 3 8 13 -6 7 -18 35 -27 61 -9 27 -27 65 -40 85 -13 20 -31 55 -40 79
-10 23 -20 42 -24 42 -4 0 -18 30 -31 66 -14 36 -33 70 -42 75 -10 5 -18 18
-18 29 0 10 -9 21 -19 25 -11 3 -26 23 -35 44 -8 22 -36 58 -61 82 -34 32 -45
50 -45 72 0 16 -11 42 -25 59 -14 16 -25 35 -25 43 0 7 -7 18 -15 25 -23 19
-63 109 -76 171 -7 30 -13 109 -14 177 -2 73 -8 128 -15 136 -8 10 -8 15 0 18
8 2 6 17 -5 48 -22 59 -38 139 -31 156 3 8 19 14 37 14 22 0 32 5 36 20 3 11
9 20 14 20 15 0 10 48 -6 54 -20 7 -19 22 2 30 11 5 22 1 29 -9 11 -15 15 -15
41 -2 41 21 111 31 127 18 7 -6 24 -11 37 -11 65 0 90 -6 95 -22 6 -19 -18
-82 -41 -104 -23 -23 -18 -34 16 -34 29 0 59 -19 59 -38 0 -5 25 -21 56 -36
48 -24 59 -26 89 -16 32 10 55 39 35 41 -6 1 -15 2 -22 3 -16 1 -38 44 -38 73
0 15 9 24 30 32 17 5 30 16 30 23 0 23 14 35 45 42 25 5 36 0 65 -27 47 -45
96 -60 165 -52 80 10 125 46 161 130 28 64 30 66 59 60 72 -15 95 -17 95 -8 0
16 -19 27 -115 65 -54 22 -115 39 -153 42 -78 7 -205 -11 -254 -35 -21 -11
-43 -19 -49 -19 -7 0 -22 -8 -33 -19 -26 -22 -107 -44 -120 -31 -15 15 -8 69
13 99 12 16 21 34 21 40 0 6 4 11 8 11 5 0 17 8 28 18 38 34 118 63 216 78
122 18 166 12 249 -32 116 -62 173 -86 232 -95 32 -5 75 -16 95 -24 20 -7 55
-16 77 -20 22 -4 46 -11 53 -17 9 -8 12 1 12 39 0 52 24 93 63 106 35 13 20
52 -35 94 -66 49 -116 78 -149 86 -14 4 -39 17 -55 29 -15 13 -56 29 -89 35
-50 10 -66 19 -95 52 -35 39 -110 86 -153 95 -12 3 -40 12 -62 20 -22 8 -47
15 -55 16 -8 0 -26 6 -40 13 -27 14 -140 20 -202 11 -40 -6 -51 -22 -42 -60 4
-16 13 -24 28 -24 29 0 81 -53 72 -75 -5 -15 -9 -15 -38 2 -43 24 -58 38 -58
56 0 56 -173 19 -205 -44 -14 -26 -50 -43 -68 -32 -5 3 -6 18 -3 34 4 20 2 29
-8 29 -7 0 -21 9 -32 21 -18 20 -18 21 1 35 11 8 30 17 43 21 45 11 15 28 -55
31 l-71 3 -28 -45 c-15 -24 -32 -42 -36 -40 -4 3 -8 -4 -8 -14 0 -11 -7 -25
-15 -32 -8 -7 -15 -18 -15 -25 0 -7 -9 -15 -20 -18 -30 -8 -28 52 4 82 22 21
25 56 7 86 -11 18 -7 155 5 163 6 4 15 27 19 52 4 25 13 56 20 70 40 79 40 78
18 118 -19 34 -20 46 -13 157 5 66 13 147 19 180 6 33 15 89 21 125 18 115 27
154 43 185 8 17 25 53 37 80 49 114 47 112 165 230 151 151 238 220 354 280
72 37 277 93 386 106 39 4 95 13 125 19 30 7 84 12 120 11 36 0 80 3 98 7 51
11 395 9 412 -3z m-1180 -1821 c0 -9 -7 -14 -17 -12 -25 5 -28 28 -4 28 12 0
21 -6 21 -16z m2396 -129 c12 -13 25 -34 29 -45 3 -11 11 -20 16 -20 5 0 9 -5
9 -12 0 -6 -3 -8 -7 -5 -3 4 -12 2 -19 -4 -10 -8 -24 -7 -51 2 -21 7 -46 12
-55 10 -29 -4 -21 28 15 63 17 18 34 34 36 35 2 0 14 -10 27 -24z m-2496 -35
c0 -5 -4 -10 -10 -10 -5 0 -10 5 -10 10 0 6 5 10 10 10 6 0 10 -4 10 -10z
m-116 -95 c15 -8 37 -15 48 -15 27 0 98 -38 98 -53 -1 -12 -64 -57 -81 -57 -5
0 -31 -14 -58 -30 -36 -22 -56 -29 -74 -24 -23 5 -25 10 -20 40 5 29 1 39 -26
64 -17 17 -31 36 -31 43 0 14 65 46 95 46 11 1 33 -6 49 -14z m381 -305 c3 -5
-1 -10 -10 -10 -9 0 -13 5 -10 10 3 6 8 10 10 10 2 0 7 -4 10 -10z m-998 -472
c9 -12 24 -52 97 -263 15 -44 38 -109 51 -145 13 -36 31 -99 40 -142 8 -42 24
-102 35 -134 21 -60 27 -150 10 -139 -18 11 -10 -11 10 -30 13 -12 20 -31 20
-54 0 -20 7 -46 15 -58 23 -32 38 -125 26 -157 -12 -31 -31 -33 -85 -7 -23 11
-53 25 -68 30 -34 13 -68 68 -92 146 -9 33 -25 76 -33 95 -26 55 -35 208 -29
450 5 179 3 239 -9 295 -22 107 -18 152 12 113z m4428 -105 c4 -35 3 -69 -3
-79 -16 -28 -30 32 -24 105 5 74 17 64 27 -26z m-60 -73 c3 -5 6 -76 6 -158 0
-126 -3 -156 -21 -204 -25 -68 -55 -108 -81 -108 -12 0 -24 -12 -32 -32 -25
-60 -78 -79 -85 -30 -4 24 41 92 59 92 37 0 49 62 28 143 -9 37 -6 53 21 136
39 116 51 143 70 158 19 15 27 16 35 3z m0 -477 c-8 -48 -37 -114 -58 -135
-16 -15 -25 -42 -26 -79 -1 -27 -62 -79 -92 -79 -15 0 -31 -5 -35 -11 -11 -18
-21 7 -16 40 4 29 32 58 102 104 31 20 36 29 40 74 5 43 12 58 42 87 20 20 40
36 44 36 3 0 3 -17 -1 -37z m-717 -546 c47 -2 52 -9 21 -31 -18 -12 -20 -21
-14 -52 4 -24 9 -33 14 -25 12 18 23 -51 16 -91 -3 -18 -7 -45 -9 -60 -3 -31
-36 -98 -48 -98 -4 0 -11 -17 -14 -39 -3 -21 -16 -50 -28 -64 -11 -14 -28 -34
-36 -44 -9 -10 -22 -34 -30 -53 -14 -33 -61 -104 -96 -143 -32 -37 -38 -5 -19
110 22 135 21 132 34 283 19 223 37 293 79 309 15 6 41 8 57 5 17 -4 49 -7 73
-7z m-2938 -1217 c0 -7 21 -31 139 -155 36 -39 75 -84 86 -100 40 -58 334
-361 430 -443 42 -36 234 -107 390 -144 22 -6 225 -11 450 -13 443 -3 497 -9
503 -52 2 -12 13 -32 25 -45 14 -15 21 -33 19 -51 -2 -15 1 -27 7 -27 6 0 11
-6 11 -14 0 -8 6 -17 13 -20 10 -5 10 -7 0 -12 -17 -8 -16 -24 1 -24 8 0 19
15 26 34 6 18 21 38 34 44 14 6 36 36 53 71 17 34 57 91 89 128 33 36 81 91
108 122 110 127 263 282 293 296 17 8 33 19 35 23 2 5 32 26 67 47 82 51 88
44 80 -91 -3 -54 -3 -110 1 -124 7 -28 -9 -110 -22 -110 -4 0 -8 -28 -8 -63 0
-34 -6 -88 -14 -118 -8 -31 -14 -78 -14 -105 0 -27 -2 -71 -6 -99 -4 -35 -3
-44 3 -30 15 32 12 1 -3 -36 -8 -19 -17 -69 -21 -111 -5 -56 -11 -78 -21 -78
-10 0 -14 -13 -14 -40 0 -22 5 -40 10 -40 6 0 10 -13 10 -29 0 -17 4 -32 9
-35 4 -3 7 -26 6 -51 -1 -32 2 -45 12 -45 7 0 13 -6 13 -14 0 -8 10 -16 23
-18 22 -3 22 -6 24 -148 1 -93 -4 -163 -12 -195 -7 -27 -18 -84 -25 -125 -6
-41 -20 -99 -30 -128 -11 -29 -20 -60 -20 -68 0 -25 -101 -253 -137 -311 -18
-29 -33 -56 -33 -60 0 -11 -19 -36 -103 -137 -100 -119 -117 -136 -135 -136
-26 0 -142 -98 -258 -217 -278 -287 -256 -267 -448 -408 -44 -33 -103 -82
-131 -108 -27 -26 -66 -51 -85 -57 -35 -9 -146 -33 -207 -45 -37 -7 -48 2
-101 92 -55 91 -126 167 -195 207 -107 63 -213 179 -274 301 -14 28 -37 64
-51 80 -14 17 -47 76 -74 133 -26 56 -67 133 -91 170 -79 122 -136 241 -172
363 -20 67 -51 151 -69 187 -65 131 -133 345 -177 557 -4 22 -12 58 -18 80
-27 109 -40 201 -56 405 -3 41 -10 101 -16 134 -6 32 -7 66 -4 75 4 9 9 88 11
176 2 88 8 187 13 220 5 33 9 164 10 290 1 127 4 238 7 247 5 16 34 15 34 -2z"/>
<path d="M5484 7736 c-19 -15 -19 -15 1 -30 11 -8 25 -16 31 -16 18 0 26 31
13 46 -14 18 -21 17 -45 0z"/>
<path d="M4640 7550 c-12 -7 -12 -12 -3 -21 9 -9 16 -9 28 1 29 24 9 42 -25
20z"/>
<path d="M4697 7374 c-25 -25 20 -151 75 -209 15 -16 28 -41 28 -55 0 -20 2
-22 10 -10 20 31 3 130 -22 130 -6 0 -7 17 -4 38 8 50 -20 106 -54 110 -14 2
-29 0 -33 -4z"/>
<path d="M4826 7061 c-4 -5 -4 -21 0 -35 9 -38 -21 -90 -60 -104 -18 -7 -74
-53 -125 -105 l-92 -92 -121 3 c-66 2 -130 7 -142 12 -11 4 -49 28 -82 54 -77
57 -151 76 -190 48 -13 -9 -26 -25 -30 -35 -7 -21 -47 -49 -66 -46 -7 1 -24 1
-37 0 -22 -1 -23 -4 -17 -48 16 -114 42 -135 176 -146 108 -8 141 -9 173 -7
12 2 66 -19 121 -45 83 -39 105 -46 135 -40 39 7 66 8 169 4 70 -2 114 14 202
72 14 9 49 19 78 22 60 7 85 21 118 71 34 50 32 103 -7 172 -22 38 -37 54 -49
52 -9 -2 -38 16 -62 39 -43 39 -48 48 -64 132 -4 21 -21 34 -28 22z"/>
<path d="M5189 6000 c-9 -5 -117 -11 -240 -14 -131 -2 -261 -10 -314 -18 -58
-10 -111 -13 -150 -8 -33 4 -87 3 -121 -1 -87 -12 -243 -15 -284 -6 -19 4 -52
12 -73 18 -47 13 -289 -6 -358 -27 -48 -15 -85 -46 -75 -62 3 -5 41 -12 83
-16 43 -3 104 -9 135 -12 39 -4 79 -1 125 10 55 13 100 15 243 11 269 -9 355
-9 485 -1 97 6 149 4 271 -13 105 -14 160 -17 180 -11 16 5 71 19 123 32 100
24 125 43 105 76 -13 21 -71 51 -99 51 -11 0 -27 -4 -36 -9z"/>
<path d="M3186 5648 c-13 -12 -16 -24 -11 -48 4 -17 9 -45 11 -63 7 -58 16
-102 24 -112 4 -5 10 -23 14 -38 4 -16 18 -41 31 -55 14 -15 25 -33 25 -40 0
-17 40 -51 60 -52 30 0 39 33 19 70 -10 19 -23 46 -29 60 -6 14 -18 39 -27 55
-8 17 -17 47 -19 69 -2 21 -8 44 -13 50 -5 6 -12 27 -16 46 -4 19 -17 44 -29
55 -21 19 -23 19 -40 3z"/>
<path d="M2960 8180 c0 -5 4 -10 9 -10 6 0 13 5 16 10 3 6 -1 10 -9 10 -9 0
-16 -4 -16 -10z"/>
<path d="M2550 6582 c0 -13 28 -42 42 -42 15 0 4 22 -20 38 -13 8 -22 10 -22
4z"/>
<path d="M2626 6522 c-10 -9 -7 -20 8 -25 8 -3 19 0 25 7 9 10 7 15 -8 19 -11
3 -22 2 -25 -1z"/>
<path d="M5880 3419 c0 -5 5 -7 10 -4 6 3 10 8 10 11 0 2 -4 4 -10 4 -5 0 -10
-5 -10 -11z"/>
</g>
</svg>
